<svg width="304" height="32" viewBox="0 0 304 32" fill="none" xmlns="http://www.w3.org/2000/svg">
<path d="M302.5 20.0995L282.685 27.8722L283.657 22.0682L296.607 17.4915L296.39 17.7855L296.517 17.108L296.658 17.3892L285.178 12.8253L286.137 7.00854L303.395 14.7813L302.5 20.0995Z" fill="#A769FF"/>
<path d="M283.641 0.59082L270.038 31.9374H264.707L278.31 0.59082H283.641Z" fill="#A769FF"/>
<path d="M257.897 14.3593L252.259 14.5127C252.267 14.0951 252.174 13.7286 251.978 13.4133C251.782 13.0894 251.505 12.838 251.147 12.659C250.789 12.4801 250.363 12.3906 249.868 12.3906C249.067 12.3906 248.347 12.5696 247.708 12.9275C247.077 13.2855 246.723 13.75 246.647 14.321C246.587 14.6278 246.672 14.8963 246.902 15.1264C247.132 15.348 247.644 15.544 248.436 15.7144L252.118 16.4304C254.01 16.8054 255.382 17.4573 256.235 18.3863C257.096 19.3068 257.402 20.5255 257.155 22.0426C256.934 23.338 256.363 24.4588 255.442 25.4048C254.53 26.3508 253.367 27.0838 251.952 27.6036C250.546 28.115 248.99 28.3707 247.286 28.3707C244.405 28.3707 242.232 27.7911 240.766 26.6321C239.309 25.4644 238.627 23.9176 238.721 21.9914L244.806 21.838C244.831 22.5625 245.074 23.1079 245.534 23.4744C246.003 23.8323 246.638 24.0198 247.439 24.0369C248.317 24.0539 249.076 23.8707 249.715 23.4872C250.354 23.1036 250.712 22.6306 250.789 22.0681C250.84 21.7017 250.716 21.4161 250.418 21.2116C250.128 21.0071 249.587 20.8238 248.794 20.6619L245.471 20.0099C243.561 19.6434 242.181 18.9531 241.328 17.9389C240.485 16.9161 240.195 15.6122 240.459 14.0269C240.681 12.7656 241.201 11.696 242.019 10.8181C242.846 9.93177 243.924 9.25848 245.253 8.79825C246.591 8.33802 248.117 8.10791 249.83 8.10791C252.574 8.10791 254.645 8.66615 256.043 9.78263C257.449 10.8906 258.067 12.4161 257.897 14.3593Z" fill="#A769FF"/>
<path d="M238.896 1.81812L234.55 27.9999H228.298L232.645 1.81812H238.896Z" fill="#A769FF"/>
<path d="M215.163 28.3707C213.092 28.3707 211.383 27.9446 210.036 27.0923C208.698 26.24 207.756 25.0511 207.211 23.5255C206.665 22 206.559 20.2272 206.891 18.2073C207.224 16.196 207.91 14.4318 208.95 12.9147C209.989 11.3977 211.319 10.2173 212.938 9.37353C214.557 8.52978 216.394 8.10791 218.448 8.10791C220.511 8.10791 222.211 8.53405 223.549 9.38632C224.896 10.2386 225.842 11.4275 226.387 12.9531C226.941 14.4786 227.052 16.2556 226.719 18.284C226.387 20.2954 225.697 22.0596 224.648 23.5767C223.6 25.0852 222.271 26.2613 220.66 27.1051C219.049 27.9488 217.217 28.3707 215.163 28.3707ZM215.866 23.6534C216.633 23.6534 217.319 23.4233 217.924 22.963C218.538 22.5028 219.053 21.8593 219.471 21.0326C219.888 20.2059 220.187 19.2471 220.366 18.1562C220.545 17.0823 220.562 16.1406 220.417 15.3309C220.28 14.5127 219.991 13.8778 219.548 13.4261C219.104 12.9659 218.504 12.7358 217.745 12.7358C216.978 12.7358 216.288 12.9701 215.674 13.4389C215.06 13.8991 214.545 14.5426 214.127 15.3693C213.718 16.1875 213.424 17.1463 213.245 18.2457C213.066 19.3196 213.045 20.2613 213.181 21.071C213.317 21.8806 213.611 22.5156 214.063 22.9758C214.515 23.4275 215.116 23.6534 215.866 23.6534Z" fill="#A769FF"/>
<path d="M192.874 28.3707C190.803 28.3707 189.094 27.9446 187.747 27.0923C186.409 26.24 185.467 25.0511 184.922 23.5255C184.376 22 184.27 20.2272 184.602 18.2073C184.935 16.196 185.621 14.4318 186.66 12.9147C187.7 11.3977 189.03 10.2173 190.649 9.37353C192.268 8.52978 194.105 8.10791 196.159 8.10791C198.222 8.10791 199.922 8.53405 201.26 9.38632C202.606 10.2386 203.553 11.4275 204.098 12.9531C204.652 14.4786 204.763 16.2556 204.43 18.284C204.098 20.2954 203.408 22.0596 202.359 23.5767C201.311 25.0852 199.981 26.2613 198.371 27.1051C196.76 27.9488 194.928 28.3707 192.874 28.3707ZM193.577 23.6534C194.344 23.6534 195.03 23.4233 195.635 22.963C196.249 22.5028 196.764 21.8593 197.182 21.0326C197.599 20.2059 197.898 19.2471 198.077 18.1562C198.256 17.0823 198.273 16.1406 198.128 15.3309C197.991 14.5127 197.702 13.8778 197.258 13.4261C196.815 12.9659 196.214 12.7358 195.456 12.7358C194.689 12.7358 193.999 12.9701 193.385 13.4389C192.771 13.8991 192.256 14.5426 191.838 15.3693C191.429 16.1875 191.135 17.1463 190.956 18.2457C190.777 19.3196 190.756 20.2613 190.892 21.071C191.028 21.8806 191.322 22.5156 191.774 22.9758C192.226 23.4275 192.827 23.6534 193.577 23.6534Z" fill="#A769FF"/>
<path d="M184.014 8.36373L183.234 12.966H170.847L171.626 8.36373H184.014ZM174.989 3.65918H181.24L178.223 21.8254C178.163 22.2089 178.172 22.52 178.249 22.7586C178.334 22.9887 178.487 23.1549 178.709 23.2572C178.939 23.3509 179.22 23.3978 179.553 23.3978C179.783 23.3978 180.038 23.3722 180.32 23.3211C180.601 23.27 180.814 23.2316 180.959 23.2061L181.163 27.7188C180.831 27.8126 180.383 27.9191 179.821 28.0384C179.267 28.1663 178.619 28.2472 177.878 28.2813C176.378 28.341 175.138 28.1663 174.158 27.7572C173.186 27.3396 172.5 26.6918 172.099 25.814C171.707 24.9362 171.631 23.8367 171.869 22.5157L174.989 3.65918Z" fill="#A769FF"/>
<path d="M170.533 8.36353L160.523 27.9999H153.364L149.913 8.36353H156.266L157.647 21.8891H157.852L163.719 8.36353H170.533Z" fill="#A769FF"/>
<path d="M136.176 28.3707C134.122 28.3707 132.418 27.9659 131.062 27.1562C129.716 26.338 128.77 25.1747 128.224 23.6661C127.679 22.1491 127.581 20.3465 127.93 18.2585C128.271 16.2301 128.966 14.4573 130.014 12.9403C131.071 11.4147 132.401 10.2301 134.003 9.38632C135.605 8.53405 137.391 8.10791 139.359 8.10791C140.757 8.10791 141.997 8.32524 143.08 8.7599C144.162 9.19456 145.057 9.84228 145.764 10.7031C146.472 11.5554 146.953 12.6036 147.209 13.848C147.464 15.0923 147.456 16.5198 147.183 18.1306L146.94 19.6903H129.886L130.462 16.0596H141.712C141.814 15.3948 141.759 14.8025 141.545 14.2826C141.332 13.7627 140.987 13.3579 140.51 13.0681C140.041 12.7698 139.466 12.6207 138.784 12.6207C138.094 12.6207 137.446 12.7826 136.841 13.1065C136.244 13.4218 135.737 13.848 135.32 14.3849C134.902 14.9218 134.629 15.5269 134.501 16.2002L133.824 19.9204C133.687 20.7471 133.726 21.4545 133.939 22.0426C134.152 22.6306 134.518 23.0823 135.038 23.3977C135.558 23.7045 136.227 23.8579 137.045 23.8579C137.591 23.8579 138.102 23.7855 138.58 23.6406C139.057 23.4872 139.483 23.2613 139.858 22.963C140.241 22.6562 140.553 22.2855 140.791 21.8508L146.493 22.017C146.033 23.3039 145.321 24.4247 144.358 25.3792C143.395 26.3252 142.219 27.0625 140.83 27.5909C139.449 28.1107 137.898 28.3707 136.176 28.3707Z" fill="#A769FF"/>
<path d="M111.132 28.2812C109.683 28.2812 108.426 27.9062 107.361 27.1562C106.295 26.4062 105.533 25.2812 105.072 23.7812C104.621 22.2812 104.578 20.419 104.945 18.1945C105.328 15.8849 106.01 13.9843 106.99 12.4928C107.97 11.0014 109.112 9.89766 110.416 9.18175C111.729 8.46584 113.067 8.10789 114.43 8.10789C115.462 8.10789 116.314 8.28687 116.987 8.64482C117.669 8.99425 118.202 9.44596 118.585 9.99993C118.969 10.5539 119.233 11.1292 119.378 11.7258H119.518L121.168 1.81812H127.419L123.072 27.9999H116.885L117.409 24.8167H117.217C116.851 25.4218 116.382 25.9886 115.811 26.517C115.24 27.0454 114.562 27.4715 113.778 27.7954C113.003 28.1193 112.121 28.2812 111.132 28.2812ZM114.085 23.4104C114.844 23.4104 115.53 23.1974 116.143 22.7712C116.757 22.3366 117.273 21.7272 117.69 20.9431C118.116 20.159 118.415 19.2386 118.585 18.1818C118.764 17.1079 118.773 16.1832 118.611 15.4076C118.449 14.632 118.129 14.0354 117.652 13.6178C117.183 13.2002 116.565 12.9914 115.798 12.9914C115.031 12.9914 114.345 13.2045 113.74 13.6306C113.135 14.0568 112.632 14.6576 112.232 15.4332C111.831 16.2087 111.541 17.1249 111.362 18.1818C111.192 19.2386 111.175 20.159 111.311 20.9431C111.456 21.7272 111.759 22.3366 112.219 22.7712C112.687 23.1974 113.31 23.4104 114.085 23.4104Z" fill="#A769FF"/>
<path d="M96.7245 28.3708C95.7955 28.3708 95.037 28.047 94.4489 27.3992C93.8608 26.7515 93.6051 25.9674 93.6819 25.047C93.7671 24.1436 94.1677 23.3722 94.8836 22.733C95.5995 22.0938 96.4176 21.7742 97.3381 21.7742C98.2159 21.7742 98.9532 22.0938 99.5498 22.733C100.155 23.3722 100.415 24.1436 100.33 25.047C100.278 25.6606 100.07 26.2188 99.7032 26.7217C99.3452 27.2245 98.902 27.6251 98.3736 27.9234C97.8452 28.2217 97.2955 28.3708 96.7245 28.3708ZM98.9617 14.8964C98.0327 14.8964 97.2742 14.5768 96.6861 13.9376C96.0981 13.2899 95.8424 12.5015 95.9191 11.5725C96.0043 10.6691 96.4049 9.89782 97.1208 9.25861C97.8367 8.61941 98.6549 8.2998 99.5753 8.2998C100.462 8.2998 101.203 8.62367 101.8 9.27139C102.396 9.9106 102.652 10.6776 102.567 11.5725C102.516 12.1947 102.311 12.7572 101.953 13.26C101.595 13.7629 101.148 14.1634 100.611 14.4617C100.082 14.7515 99.5327 14.8964 98.9617 14.8964Z" fill="#A769FF"/>
<path d="M93.1001 8.36373L92.3203 12.966H79.9325L80.7123 8.36373H93.1001ZM84.0745 3.65918H90.326L87.3089 21.8254C87.2493 22.2089 87.2578 22.52 87.3345 22.7586C87.4197 22.9887 87.5731 23.1549 87.7947 23.2572C88.0248 23.3509 88.3061 23.3978 88.6385 23.3978C88.8686 23.3978 89.1243 23.3722 89.4055 23.3211C89.6868 23.27 89.8998 23.2316 90.0447 23.2061L90.2493 27.7188C89.9169 27.8126 89.4694 27.9191 88.9069 28.0384C88.353 28.1663 87.7052 28.2472 86.9637 28.2813C85.4637 28.341 84.2237 28.1663 83.2436 27.7572C82.272 27.3396 81.5859 26.6918 81.1853 25.814C80.7933 24.9362 80.7166 23.8367 80.9552 22.5157L84.0745 3.65918Z" fill="#A769FF"/>
<path d="M66.3782 28.3707C64.3072 28.3707 62.5984 27.9446 61.2518 27.0923C59.9137 26.24 58.9762 25.0554 58.4393 23.5383C57.9023 22.0127 57.8043 20.2485 58.1452 18.2457C58.4691 16.2343 59.1552 14.4701 60.2035 12.9531C61.2518 11.4275 62.5898 10.2386 64.2177 9.38632C65.8455 8.53405 67.6864 8.10791 69.7404 8.10791C71.5558 8.10791 73.0813 8.43603 74.3171 9.09228C75.5614 9.74853 76.4606 10.6775 77.0146 11.8792C77.5771 13.0724 77.7433 14.4744 77.5131 16.0852H71.6708C71.7219 15.088 71.5174 14.3039 71.0572 13.7329C70.5969 13.1534 69.9279 12.8636 69.0501 12.8636C68.3086 12.8636 67.6268 13.0681 67.0046 13.4772C66.391 13.8778 65.8668 14.4744 65.4322 15.267C65.006 16.0511 64.6992 17.0227 64.5117 18.1818C64.3242 19.3409 64.3114 20.321 64.4734 21.1221C64.6438 21.9147 64.9634 22.5156 65.4322 22.9247C65.9094 23.3252 66.5146 23.5255 67.2475 23.5255C67.8271 23.5255 68.364 23.4019 68.8583 23.1548C69.3526 22.9076 69.783 22.5454 70.1495 22.0681C70.516 21.5823 70.8015 20.9943 71.006 20.3039H76.8356C76.5032 21.9318 75.8597 23.3508 74.9052 24.561C73.9592 25.7627 72.7617 26.7002 71.3129 27.3735C69.864 28.0383 68.2191 28.3707 66.3782 28.3707Z" fill="#A769FF"/>
<path d="M41.6538 28.3323C40.4094 28.3323 39.3356 28.1235 38.4322 27.7059C37.5373 27.2798 36.881 26.6363 36.4634 25.7755C36.0543 24.9147 35.9563 23.8409 36.1694 22.5539C36.3569 21.463 36.7021 20.5468 37.2049 19.8054C37.7163 19.0554 38.3427 18.446 39.0842 17.9772C39.8342 17.5085 40.6694 17.1505 41.5898 16.9034C42.5103 16.6562 43.4734 16.49 44.479 16.4048C45.604 16.3025 46.516 16.1917 47.2148 16.0724C47.9222 15.9531 48.4506 15.7869 48.8001 15.5738C49.1495 15.3522 49.3626 15.0454 49.4393 14.6534V14.5894C49.5416 13.9332 49.4009 13.4261 49.0174 13.0681C48.6339 12.7102 48.0586 12.5312 47.2915 12.5312C46.4734 12.5312 45.7745 12.7102 45.195 13.0681C44.6154 13.4261 44.2106 13.9204 43.9805 14.5511L38.2532 14.3465C38.6112 13.1534 39.2248 12.088 40.0941 11.1505C40.9634 10.2045 42.0671 9.46302 43.4052 8.92609C44.7518 8.38064 46.3072 8.10791 48.0714 8.10791C49.3157 8.10791 50.4407 8.25706 51.4464 8.55535C52.4521 8.84513 53.3001 9.27126 53.9904 9.83376C54.6893 10.3877 55.1879 11.0696 55.4862 11.8792C55.7844 12.6889 55.8484 13.6136 55.6779 14.6534L53.4407 28H47.56L48.0202 25.2642H47.8668C47.4066 25.9289 46.8654 26.4914 46.2433 26.9517C45.6296 27.4119 44.9393 27.7571 44.1722 27.9872C43.4052 28.2173 42.5657 28.3323 41.6538 28.3323ZM44.2873 24.2414C44.9435 24.2414 45.5657 24.1051 46.1538 23.8323C46.7418 23.5596 47.2362 23.1846 47.6367 22.7073C48.0458 22.2215 48.3058 21.659 48.4165 21.0198L48.7106 19.1534C48.5316 19.2471 48.3058 19.3323 48.033 19.409C47.7603 19.4858 47.4705 19.5582 47.1637 19.6264C46.8569 19.686 46.5415 19.7457 46.2177 19.8054C45.9023 19.8565 45.5998 19.9034 45.31 19.946C44.6964 20.0397 44.1637 20.1846 43.712 20.3806C43.2603 20.5767 42.8981 20.8323 42.6254 21.1477C42.3612 21.4545 42.1992 21.821 42.1396 22.2471C42.0373 22.8863 42.1864 23.3806 42.587 23.7301C42.9876 24.071 43.5543 24.2414 44.2873 24.2414Z" fill="#A769FF"/>
<path d="M23.6058 28.3707C21.5518 28.3707 19.8473 27.9659 18.4922 27.1562C17.1456 26.338 16.1996 25.1747 15.6541 23.6661C15.1086 22.1491 15.0106 20.3465 15.3601 18.2585C15.701 16.2301 16.3956 14.4573 17.4439 12.9403C18.5007 11.4147 19.8302 10.2301 21.4325 9.38632C23.0348 8.53405 24.8203 8.10791 26.789 8.10791C28.1868 8.10791 29.4268 8.32524 30.5092 8.7599C31.5916 9.19456 32.4865 9.84228 33.1939 10.7031C33.9013 11.5554 34.3828 12.6036 34.6385 13.848C34.8942 15.0923 34.8856 16.5198 34.6129 18.1306L34.37 19.6903H17.316L17.8913 16.0596H29.1413C29.2436 15.3948 29.1882 14.8025 28.9751 14.2826C28.7621 13.7627 28.4169 13.3579 27.9396 13.0681C27.4709 12.7698 26.8956 12.6207 26.2138 12.6207C25.5234 12.6207 24.8757 12.7826 24.2706 13.1065C23.674 13.4218 23.1669 13.848 22.7493 14.3849C22.3317 14.9218 22.0589 15.5269 21.9311 16.2002L21.2535 19.9204C21.1172 20.7471 21.1555 21.4545 21.3686 22.0426C21.5817 22.6306 21.9481 23.0823 22.468 23.3977C22.9879 23.7045 23.6569 23.8579 24.4751 23.8579C25.0206 23.8579 25.5319 23.7855 26.0092 23.6406C26.4865 23.4872 26.9126 23.2613 27.2876 22.963C27.6711 22.6562 27.9822 22.2855 28.2209 21.8508L33.9226 22.017C33.4623 23.3039 32.7507 24.4247 31.7876 25.3792C30.8246 26.3252 29.6484 27.0625 28.2592 27.5909C26.8785 28.1107 25.3274 28.3707 23.6058 28.3707Z" fill="#A769FF"/>
<path d="M0.345215 28L3.61794 8.36368H9.69039L9.08953 11.9432H9.29408C9.8651 10.6478 10.6108 9.6847 11.5313 9.05402C12.4517 8.41482 13.4489 8.09521 14.5228 8.09521C14.8125 8.09521 15.1023 8.11652 15.3921 8.15913C15.6904 8.19323 15.9716 8.24436 16.2358 8.31254L15.3154 13.7586C15.0256 13.6478 14.6464 13.5668 14.1776 13.5157C13.7089 13.456 13.2827 13.4262 12.8992 13.4262C12.1577 13.4262 11.4674 13.5924 10.8282 13.9248C10.1975 14.2486 9.66056 14.7046 9.21737 15.2927C8.78272 15.8722 8.4972 16.554 8.36084 17.3381L6.59664 28H0.345215Z" fill="#A769FF"/>
</svg>
